<?xml version="1.0" encoding="utf-8"?>
<!-- Svg Vector Icons : http://www.onlinewebfonts.com/icon -->
<!DOCTYPE svg PUBLIC "-//W3C//DTD SVG 1.1//EN" "http://www.w3.org/Graphics/SVG/1.1/DTD/svg11.dtd">
<svg version="1.1" xmlns="http://www.w3.org/2000/svg" xmlns:xlink="http://www.w3.org/1999/xlink" x="0px" y="0px" viewBox="0 0 1000 1000" enable-background="new 0 0 1000 1000" xml:space="preserve">
<g class="cashpay-loading"><path d="M500,10L500,10c17,0,30.8,13.9,30.8,30.8v129.8c0,17-13.9,30.8-30.8,30.8l0,0c-17,0-30.8-13.9-30.8-30.8V40.8C469.2,23.9,483,10,500,10L500,10z"/><path d="M500,798.5L500,798.5c17,0,30.8,13.9,30.8,30.8v129.8c0,17-13.9,30.8-30.8,30.8l0,0c-17,0-30.8-13.9-30.8-30.8V829.4C469.2,812.4,483,798.5,500,798.5L500,798.5z"/><path d="M990,500L990,500c0,17-13.9,30.8-30.8,30.8H829.4c-17,0-30.8-13.9-30.8-30.8l0,0c0-17,13.9-30.8,30.8-30.8h129.8C976.1,469.2,990,483,990,500L990,500z"/><path d="M201.5,500L201.5,500c0,17-13.9,30.8-30.8,30.8H40.8C23.9,530.8,10,517,10,500l0,0c0-17,13.9-30.8,30.8-30.8h129.8C187.6,469.2,201.5,483,201.5,500L201.5,500z"/><path d="M924.3,255L924.3,255c8.5,14.7,3.4,33.6-11.3,42.1L800.6,362c-14.7,8.5-33.6,3.4-42.1-11.3l0,0c-8.5-14.7-3.4-33.6,11.3-42.1l112.4-64.9C896.9,235.2,915.9,240.3,924.3,255L924.3,255z"/><path d="M241.5,649.3L241.5,649.3c8.5,14.7,3.4,33.6-11.3,42.1l-112.4,64.9c-14.7,8.5-33.6,3.4-42.1-11.3h0c-8.5-14.7-3.4-33.6,11.3-42.1L199.3,638C214,629.5,233,634.6,241.5,649.3L241.5,649.3z"/><path d="M745,75.6L745,75.6c14.7,8.5,19.8,27.4,11.3,42.1l-64.9,112.4c-8.5,14.7-27.4,19.8-42.1,11.3l0,0c-14.7-8.5-19.8-27.4-11.3-42.1l64.9-112.4C711.4,72.2,730.3,67.2,745,75.6L745,75.6z"/><path d="M350.7,758.5L350.7,758.5c14.7,8.5,19.8,27.4,11.3,42.1l-64.9,112.4c-8.5,14.7-27.4,19.8-42.1,11.3l0,0c-14.7-8.5-19.8-27.4-11.3-42.1l64.9-112.4C317.1,755.1,336,750.1,350.7,758.5L350.7,758.5z"/><path d="M255,75.6L255,75.6c14.7-8.5,33.6-3.4,42.1,11.3L362,199.3c8.5,14.7,3.4,33.6-11.3,42.1l0,0c-14.7,8.5-33.6,3.4-42.1-11.3l-64.9-112.4C235.2,103.1,240.3,84.1,255,75.6L255,75.6z"/><path d="M649.3,758.5L649.3,758.5c14.7-8.5,33.6-3.4,42.1,11.3l64.9,112.4c8.5,14.7,3.4,33.6-11.3,42.1l0,0c-14.7,8.5-33.6,3.4-42.1-11.3L638,800.6C629.5,786,634.6,767,649.3,758.5L649.3,758.5z"/><path d="M75.6,255L75.6,255c8.5-14.7,27.4-19.8,42.1-11.3l112.4,64.9c14.7,8.5,19.8,27.4,11.3,42.1l0,0c-8.5,14.7-27.4,19.8-42.1,11.3L86.9,297.1C72.2,288.6,67.2,269.7,75.6,255L75.6,255z"/><path d="M758.5,649.3L758.5,649.3c8.5-14.7,27.4-19.8,42.1-11.3l112.4,64.9c14.7,8.5,19.8,27.4,11.3,42.1l0,0c-8.5,14.7-27.4,19.8-42.1,11.3l-112.4-64.9C755.1,682.9,750.1,663.9,758.5,649.3L758.5,649.3z"/></g>
</svg>
